<svg width="1440" height="764" viewBox="0 0 1440 764" fill="none" xmlns="http://www.w3.org/2000/svg">
<path d="M334.292 10.1361C203.124 -10.3588 72.6696 3.86501 0 20.7346V700H1440V42.5C1324.32 113.519 1206 51.6895 1148.9 41.4107C1091.48 31.0727 988.128 -7.23859 860.804 66.9515C709.978 167.199 513.224 38.0941 334.292 10.1361Z" fill="url(#paint0_linear_112_1374)"/>
<rect y="700" width="1440" height="64" fill="url(#paint1_linear_112_1374)"/>
<path d="M507.328 727.586C506.698 727.586 506.13 727.695 505.625 727.914C505.125 728.128 504.698 728.44 504.344 728.852C503.995 729.258 503.727 729.75 503.539 730.328C503.352 730.906 503.258 731.557 503.258 732.281C503.258 733.24 503.406 734.073 503.703 734.781C504.005 735.484 504.453 736.029 505.047 736.414C505.646 736.799 506.393 736.992 507.289 736.992C507.799 736.992 508.279 736.951 508.727 736.867C509.18 736.779 509.62 736.669 510.047 736.539V737.695C509.63 737.852 509.193 737.966 508.734 738.039C508.276 738.117 507.732 738.156 507.102 738.156C505.94 738.156 504.969 737.917 504.188 737.438C503.411 736.953 502.828 736.271 502.438 735.391C502.052 734.51 501.859 733.471 501.859 732.273C501.859 731.409 501.979 730.62 502.219 729.906C502.464 729.188 502.818 728.568 503.281 728.047C503.75 727.526 504.323 727.125 505 726.844C505.682 726.557 506.464 726.414 507.344 726.414C507.922 726.414 508.479 726.471 509.016 726.586C509.552 726.701 510.036 726.865 510.469 727.078L509.938 728.203C509.573 728.036 509.172 727.893 508.734 727.773C508.302 727.648 507.833 727.586 507.328 727.586ZM519.711 733.703C519.711 734.406 519.62 735.034 519.438 735.586C519.255 736.138 518.992 736.604 518.648 736.984C518.305 737.365 517.888 737.656 517.398 737.859C516.914 738.057 516.365 738.156 515.75 738.156C515.177 738.156 514.651 738.057 514.172 737.859C513.698 737.656 513.286 737.365 512.938 736.984C512.594 736.604 512.326 736.138 512.133 735.586C511.945 735.034 511.852 734.406 511.852 733.703C511.852 732.766 512.01 731.969 512.328 731.312C512.646 730.651 513.099 730.148 513.688 729.805C514.281 729.456 514.987 729.281 515.805 729.281C516.586 729.281 517.268 729.456 517.852 729.805C518.44 730.154 518.896 730.659 519.219 731.32C519.547 731.977 519.711 732.771 519.711 733.703ZM513.195 733.703C513.195 734.391 513.286 734.987 513.469 735.492C513.651 735.997 513.932 736.388 514.312 736.664C514.693 736.94 515.182 737.078 515.781 737.078C516.375 737.078 516.862 736.94 517.242 736.664C517.628 736.388 517.911 735.997 518.094 735.492C518.276 734.987 518.367 734.391 518.367 733.703C518.367 733.021 518.276 732.432 518.094 731.938C517.911 731.438 517.63 731.052 517.25 730.781C516.87 730.51 516.378 730.375 515.773 730.375C514.883 730.375 514.229 730.669 513.812 731.258C513.401 731.846 513.195 732.661 513.195 733.703ZM525.977 729.281C527.044 729.281 527.896 729.648 528.531 730.383C529.167 731.117 529.484 732.221 529.484 733.695C529.484 734.669 529.339 735.487 529.047 736.148C528.755 736.81 528.344 737.31 527.812 737.648C527.286 737.987 526.664 738.156 525.945 738.156C525.492 738.156 525.094 738.096 524.75 737.977C524.406 737.857 524.112 737.695 523.867 737.492C523.622 737.289 523.419 737.068 523.258 736.828H523.164C523.18 737.031 523.198 737.276 523.219 737.562C523.245 737.849 523.258 738.099 523.258 738.312V741.828H521.953V729.438H523.023L523.195 730.703H523.258C523.424 730.443 523.628 730.206 523.867 729.992C524.107 729.773 524.398 729.602 524.742 729.477C525.091 729.346 525.503 729.281 525.977 729.281ZM525.75 730.375C525.156 730.375 524.677 730.49 524.312 730.719C523.953 730.948 523.69 731.292 523.523 731.75C523.357 732.203 523.268 732.773 523.258 733.461V733.711C523.258 734.435 523.336 735.047 523.492 735.547C523.654 736.047 523.917 736.427 524.281 736.688C524.651 736.948 525.146 737.078 525.766 737.078C526.297 737.078 526.74 736.935 527.094 736.648C527.448 736.362 527.711 735.964 527.883 735.453C528.06 734.938 528.148 734.346 528.148 733.68C528.148 732.669 527.951 731.867 527.555 731.273C527.164 730.674 526.562 730.375 525.75 730.375ZM530.398 729.438H531.789L533.68 734.406C533.789 734.698 533.891 734.979 533.984 735.25C534.078 735.516 534.161 735.771 534.234 736.016C534.307 736.26 534.365 736.497 534.406 736.727H534.461C534.534 736.466 534.638 736.125 534.773 735.703C534.909 735.276 535.055 734.841 535.211 734.398L537 729.438H538.398L534.672 739.258C534.474 739.784 534.242 740.242 533.977 740.633C533.716 741.023 533.398 741.323 533.023 741.531C532.648 741.745 532.195 741.852 531.664 741.852C531.419 741.852 531.203 741.836 531.016 741.805C530.828 741.779 530.667 741.747 530.531 741.711V740.672C530.646 740.698 530.784 740.721 530.945 740.742C531.112 740.763 531.284 740.773 531.461 740.773C531.784 740.773 532.062 740.711 532.297 740.586C532.536 740.466 532.742 740.289 532.914 740.055C533.086 739.82 533.234 739.542 533.359 739.219L533.828 738.016L530.398 729.438ZM543.656 729.281C543.828 729.281 544.008 729.292 544.195 729.312C544.383 729.328 544.549 729.352 544.695 729.383L544.531 730.586C544.391 730.549 544.234 730.521 544.062 730.5C543.891 730.479 543.729 730.469 543.578 730.469C543.234 730.469 542.909 730.539 542.602 730.68C542.299 730.815 542.034 731.013 541.805 731.273C541.576 731.529 541.396 731.839 541.266 732.203C541.135 732.562 541.07 732.964 541.07 733.406V738H539.766V729.438H540.844L540.984 731.016H541.039C541.216 730.698 541.43 730.409 541.68 730.148C541.93 729.883 542.219 729.672 542.547 729.516C542.88 729.359 543.25 729.281 543.656 729.281ZM547.609 729.438V738H546.312V729.438H547.609ZM546.977 726.234C547.19 726.234 547.372 726.305 547.523 726.445C547.68 726.581 547.758 726.794 547.758 727.086C547.758 727.372 547.68 727.586 547.523 727.727C547.372 727.867 547.19 727.938 546.977 727.938C546.753 727.938 546.565 727.867 546.414 727.727C546.268 727.586 546.195 727.372 546.195 727.086C546.195 726.794 546.268 726.581 546.414 726.445C546.565 726.305 546.753 726.234 546.977 726.234ZM552.75 741.844C551.625 741.844 550.758 741.633 550.148 741.211C549.539 740.794 549.234 740.208 549.234 739.453C549.234 738.917 549.404 738.458 549.742 738.078C550.086 737.698 550.56 737.445 551.164 737.32C550.94 737.216 550.747 737.06 550.586 736.852C550.43 736.643 550.352 736.404 550.352 736.133C550.352 735.82 550.438 735.547 550.609 735.312C550.786 735.073 551.055 734.844 551.414 734.625C550.966 734.443 550.602 734.135 550.32 733.703C550.044 733.266 549.906 732.758 549.906 732.18C549.906 731.565 550.034 731.042 550.289 730.609C550.544 730.172 550.914 729.839 551.398 729.609C551.883 729.38 552.469 729.266 553.156 729.266C553.307 729.266 553.458 729.273 553.609 729.289C553.766 729.299 553.914 729.318 554.055 729.344C554.195 729.365 554.318 729.391 554.422 729.422H557.359V730.258L555.781 730.453C555.938 730.656 556.068 730.901 556.172 731.188C556.276 731.474 556.328 731.792 556.328 732.141C556.328 732.995 556.039 733.674 555.461 734.18C554.883 734.68 554.089 734.93 553.078 734.93C552.839 734.93 552.594 734.909 552.344 734.867C552.089 735.008 551.893 735.164 551.758 735.336C551.628 735.508 551.562 735.706 551.562 735.93C551.562 736.096 551.612 736.229 551.711 736.328C551.815 736.427 551.964 736.5 552.156 736.547C552.349 736.589 552.581 736.609 552.852 736.609H554.359C555.292 736.609 556.005 736.805 556.5 737.195C557 737.586 557.25 738.156 557.25 738.906C557.25 739.854 556.865 740.581 556.094 741.086C555.323 741.591 554.208 741.844 552.75 741.844ZM552.789 740.828C553.497 740.828 554.083 740.755 554.547 740.609C555.016 740.469 555.365 740.263 555.594 739.992C555.828 739.727 555.945 739.409 555.945 739.039C555.945 738.695 555.867 738.435 555.711 738.258C555.555 738.086 555.326 737.971 555.023 737.914C554.721 737.852 554.352 737.82 553.914 737.82H552.43C552.044 737.82 551.708 737.88 551.422 738C551.135 738.12 550.914 738.297 550.758 738.531C550.607 738.766 550.531 739.057 550.531 739.406C550.531 739.87 550.727 740.221 551.117 740.461C551.508 740.706 552.065 740.828 552.789 740.828ZM553.125 733.984C553.745 733.984 554.211 733.828 554.523 733.516C554.836 733.203 554.992 732.747 554.992 732.148C554.992 731.508 554.833 731.029 554.516 730.711C554.198 730.388 553.729 730.227 553.109 730.227C552.516 730.227 552.057 730.393 551.734 730.727C551.417 731.055 551.258 731.536 551.258 732.172C551.258 732.755 551.419 733.203 551.742 733.516C552.065 733.828 552.526 733.984 553.125 733.984ZM560.344 725.844V729.477C560.344 729.685 560.339 729.896 560.328 730.109C560.318 730.318 560.299 730.51 560.273 730.688H560.359C560.536 730.385 560.76 730.133 561.031 729.93C561.307 729.721 561.62 729.565 561.969 729.461C562.318 729.352 562.688 729.297 563.078 729.297C563.766 729.297 564.339 729.406 564.797 729.625C565.26 729.844 565.607 730.182 565.836 730.641C566.07 731.099 566.188 731.693 566.188 732.422V738H564.906V732.508C564.906 731.794 564.742 731.26 564.414 730.906C564.091 730.552 563.594 730.375 562.922 730.375C562.286 730.375 561.779 730.497 561.398 730.742C561.023 730.982 560.753 731.336 560.586 731.805C560.424 732.273 560.344 732.846 560.344 733.523V738H559.047V725.844H560.344ZM571.625 737.094C571.839 737.094 572.057 737.076 572.281 737.039C572.505 737.003 572.688 736.958 572.828 736.906V737.914C572.677 737.982 572.466 738.039 572.195 738.086C571.93 738.133 571.669 738.156 571.414 738.156C570.961 738.156 570.549 738.078 570.18 737.922C569.81 737.76 569.513 737.49 569.289 737.109C569.07 736.729 568.961 736.203 568.961 735.531V730.453H567.742V729.82L568.969 729.312L569.484 727.453H570.266V729.438H572.773V730.453H570.266V735.492C570.266 736.029 570.388 736.43 570.633 736.695C570.883 736.961 571.214 737.094 571.625 737.094ZM585.625 738H578.141V736.914L581.195 733.812C581.763 733.24 582.24 732.729 582.625 732.281C583.016 731.833 583.312 731.393 583.516 730.961C583.719 730.523 583.82 730.044 583.82 729.523C583.82 728.878 583.628 728.385 583.242 728.047C582.862 727.703 582.359 727.531 581.734 727.531C581.188 727.531 580.703 727.625 580.281 727.812C579.859 728 579.427 728.266 578.984 728.609L578.289 727.734C578.591 727.479 578.919 727.253 579.273 727.055C579.633 726.857 580.016 726.701 580.422 726.586C580.833 726.471 581.271 726.414 581.734 726.414C582.438 726.414 583.044 726.536 583.555 726.781C584.065 727.026 584.458 727.375 584.734 727.828C585.016 728.281 585.156 728.82 585.156 729.445C585.156 730.049 585.036 730.612 584.797 731.133C584.557 731.648 584.221 732.161 583.789 732.672C583.357 733.177 582.852 733.714 582.273 734.281L579.789 736.758V736.812H585.625V738ZM594.844 732.273C594.844 733.201 594.773 734.029 594.633 734.758C594.492 735.487 594.271 736.104 593.969 736.609C593.667 737.115 593.276 737.5 592.797 737.766C592.318 738.026 591.742 738.156 591.07 738.156C590.221 738.156 589.518 737.924 588.961 737.461C588.409 736.997 587.995 736.328 587.719 735.453C587.448 734.573 587.312 733.513 587.312 732.273C587.312 731.055 587.435 730.008 587.68 729.133C587.93 728.253 588.331 727.578 588.883 727.109C589.435 726.635 590.164 726.398 591.07 726.398C591.93 726.398 592.638 726.633 593.195 727.102C593.753 727.565 594.167 728.237 594.438 729.117C594.708 729.992 594.844 731.044 594.844 732.273ZM588.617 732.273C588.617 733.336 588.698 734.221 588.859 734.93C589.021 735.638 589.281 736.169 589.641 736.523C590.005 736.872 590.482 737.047 591.07 737.047C591.659 737.047 592.133 736.872 592.492 736.523C592.857 736.174 593.12 735.646 593.281 734.938C593.448 734.229 593.531 733.341 593.531 732.273C593.531 731.227 593.451 730.352 593.289 729.648C593.128 728.94 592.867 728.409 592.508 728.055C592.148 727.695 591.669 727.516 591.07 727.516C590.471 727.516 589.992 727.695 589.633 728.055C589.273 728.409 589.013 728.94 588.852 729.648C588.695 730.352 588.617 731.227 588.617 732.273ZM601.281 738H600.016V729.906C600.016 729.599 600.016 729.336 600.016 729.117C600.021 728.893 600.026 728.69 600.031 728.508C600.042 728.32 600.055 728.13 600.07 727.938C599.909 728.104 599.758 728.247 599.617 728.367C599.477 728.482 599.302 728.625 599.094 728.797L597.789 729.844L597.109 728.961L600.203 726.578H601.281V738ZM613.109 731.445C613.109 732.138 613.06 732.812 612.961 733.469C612.867 734.125 612.703 734.737 612.469 735.305C612.24 735.872 611.927 736.37 611.531 736.797C611.135 737.224 610.638 737.56 610.039 737.805C609.445 738.044 608.734 738.164 607.906 738.164C607.682 738.164 607.427 738.148 607.141 738.117C606.854 738.091 606.62 738.052 606.438 738V736.875C606.63 736.943 606.857 736.997 607.117 737.039C607.378 737.076 607.633 737.094 607.883 737.094C608.857 737.094 609.622 736.885 610.18 736.469C610.737 736.047 611.138 735.477 611.383 734.758C611.628 734.034 611.766 733.221 611.797 732.32H611.703C611.547 732.57 611.341 732.802 611.086 733.016C610.836 733.224 610.531 733.393 610.172 733.523C609.812 733.648 609.393 733.711 608.914 733.711C608.253 733.711 607.674 733.576 607.18 733.305C606.69 733.034 606.307 732.641 606.031 732.125C605.76 731.609 605.625 730.987 605.625 730.258C605.625 729.471 605.773 728.792 606.07 728.219C606.372 727.641 606.794 727.195 607.336 726.883C607.878 726.57 608.516 726.414 609.25 726.414C609.812 726.414 610.328 726.521 610.797 726.734C611.266 726.948 611.672 727.268 612.016 727.695C612.365 728.117 612.633 728.641 612.82 729.266C613.013 729.891 613.109 730.617 613.109 731.445ZM609.25 727.516C608.557 727.516 607.995 727.742 607.562 728.195C607.135 728.648 606.922 729.331 606.922 730.242C606.922 730.997 607.107 731.594 607.477 732.031C607.846 732.469 608.417 732.688 609.188 732.688C609.719 732.688 610.177 732.581 610.562 732.367C610.953 732.154 611.253 731.883 611.461 731.555C611.674 731.227 611.781 730.891 611.781 730.547C611.781 730.203 611.729 729.854 611.625 729.5C611.526 729.146 611.372 728.82 611.164 728.523C610.956 728.221 610.693 727.979 610.375 727.797C610.057 727.609 609.682 727.516 609.25 727.516ZM614.617 734.281V733.125H618.492V734.281H614.617ZM627.406 738H619.922V736.914L622.977 733.812C623.544 733.24 624.021 732.729 624.406 732.281C624.797 731.833 625.094 731.393 625.297 730.961C625.5 730.523 625.602 730.044 625.602 729.523C625.602 728.878 625.409 728.385 625.023 728.047C624.643 727.703 624.141 727.531 623.516 727.531C622.969 727.531 622.484 727.625 622.062 727.812C621.641 728 621.208 728.266 620.766 728.609L620.07 727.734C620.372 727.479 620.701 727.253 621.055 727.055C621.414 726.857 621.797 726.701 622.203 726.586C622.615 726.471 623.052 726.414 623.516 726.414C624.219 726.414 624.826 726.536 625.336 726.781C625.846 727.026 626.24 727.375 626.516 727.828C626.797 728.281 626.938 728.82 626.938 729.445C626.938 730.049 626.818 730.612 626.578 731.133C626.339 731.648 626.003 732.161 625.57 732.672C625.138 733.177 624.633 733.714 624.055 734.281L621.57 736.758V736.812H627.406V738ZM636.625 732.273C636.625 733.201 636.555 734.029 636.414 734.758C636.273 735.487 636.052 736.104 635.75 736.609C635.448 737.115 635.057 737.5 634.578 737.766C634.099 738.026 633.523 738.156 632.852 738.156C632.003 738.156 631.299 737.924 630.742 737.461C630.19 736.997 629.776 736.328 629.5 735.453C629.229 734.573 629.094 733.513 629.094 732.273C629.094 731.055 629.216 730.008 629.461 729.133C629.711 728.253 630.112 727.578 630.664 727.109C631.216 726.635 631.945 726.398 632.852 726.398C633.711 726.398 634.419 726.633 634.977 727.102C635.534 727.565 635.948 728.237 636.219 729.117C636.49 729.992 636.625 731.044 636.625 732.273ZM630.398 732.273C630.398 733.336 630.479 734.221 630.641 734.93C630.802 735.638 631.062 736.169 631.422 736.523C631.786 736.872 632.263 737.047 632.852 737.047C633.44 737.047 633.914 736.872 634.273 736.523C634.638 736.174 634.901 735.646 635.062 734.938C635.229 734.229 635.312 733.341 635.312 732.273C635.312 731.227 635.232 730.352 635.07 729.648C634.909 728.94 634.648 728.409 634.289 728.055C633.93 727.695 633.451 727.516 632.852 727.516C632.253 727.516 631.773 727.695 631.414 728.055C631.055 728.409 630.794 728.94 630.633 729.648C630.477 730.352 630.398 731.227 630.398 732.273ZM645.719 738H638.234V736.914L641.289 733.812C641.857 733.24 642.333 732.729 642.719 732.281C643.109 731.833 643.406 731.393 643.609 730.961C643.812 730.523 643.914 730.044 643.914 729.523C643.914 728.878 643.721 728.385 643.336 728.047C642.956 727.703 642.453 727.531 641.828 727.531C641.281 727.531 640.797 727.625 640.375 727.812C639.953 728 639.521 728.266 639.078 728.609L638.383 727.734C638.685 727.479 639.013 727.253 639.367 727.055C639.727 726.857 640.109 726.701 640.516 726.586C640.927 726.471 641.365 726.414 641.828 726.414C642.531 726.414 643.138 726.536 643.648 726.781C644.159 727.026 644.552 727.375 644.828 727.828C645.109 728.281 645.25 728.82 645.25 729.445C645.25 730.049 645.13 730.612 644.891 731.133C644.651 731.648 644.315 732.161 643.883 732.672C643.451 733.177 642.945 733.714 642.367 734.281L639.883 736.758V736.812H645.719V738ZM654.875 738H647.391V736.914L650.445 733.812C651.013 733.24 651.49 732.729 651.875 732.281C652.266 731.833 652.562 731.393 652.766 730.961C652.969 730.523 653.07 730.044 653.07 729.523C653.07 728.878 652.878 728.385 652.492 728.047C652.112 727.703 651.609 727.531 650.984 727.531C650.438 727.531 649.953 727.625 649.531 727.812C649.109 728 648.677 728.266 648.234 728.609L647.539 727.734C647.841 727.479 648.169 727.253 648.523 727.055C648.883 726.857 649.266 726.701 649.672 726.586C650.083 726.471 650.521 726.414 650.984 726.414C651.688 726.414 652.294 726.536 652.805 726.781C653.315 727.026 653.708 727.375 653.984 727.828C654.266 728.281 654.406 728.82 654.406 729.445C654.406 730.049 654.286 730.612 654.047 731.133C653.807 731.648 653.471 732.161 653.039 732.672C652.607 733.177 652.102 733.714 651.523 734.281L649.039 736.758V736.812H654.875V738ZM666.57 738.156C665.721 738.156 664.938 738.01 664.219 737.719C663.505 737.427 662.883 737.018 662.352 736.492C661.826 735.966 661.417 735.346 661.125 734.633C660.839 733.914 660.695 733.133 660.695 732.289C660.695 731.44 660.841 730.659 661.133 729.945C661.424 729.227 661.833 728.604 662.359 728.078C662.891 727.552 663.513 727.143 664.227 726.852C664.945 726.56 665.727 726.414 666.57 726.414C667.388 726.414 668.151 726.562 668.859 726.859C669.573 727.151 670.198 727.562 670.734 728.094C671.271 728.62 671.69 729.24 671.992 729.953C672.294 730.667 672.445 731.445 672.445 732.289C672.445 733.133 672.299 733.914 672.008 734.633C671.716 735.346 671.305 735.966 670.773 736.492C670.247 737.018 669.625 737.427 668.906 737.719C668.193 738.01 667.414 738.156 666.57 738.156ZM666.82 735.859C665.768 735.859 664.977 735.536 664.445 734.891C663.914 734.24 663.648 733.372 663.648 732.289C663.648 731.596 663.773 730.984 664.023 730.453C664.279 729.917 664.646 729.497 665.125 729.195C665.609 728.888 666.195 728.734 666.883 728.734C667.227 728.734 667.568 728.776 667.906 728.859C668.245 728.943 668.562 729.06 668.859 729.211L668.422 730.117C668.161 729.982 667.904 729.88 667.648 729.812C667.393 729.74 667.143 729.703 666.898 729.703C666.237 729.703 665.724 729.935 665.359 730.398C664.995 730.857 664.812 731.487 664.812 732.289C664.812 733.122 664.977 733.763 665.305 734.211C665.638 734.659 666.161 734.883 666.875 734.883C667.135 734.883 667.414 734.849 667.711 734.781C668.013 734.714 668.299 734.625 668.57 734.516V735.469C668.315 735.583 668.052 735.677 667.781 735.75C667.51 735.823 667.19 735.859 666.82 735.859ZM666.57 737.359C667.263 737.359 667.911 737.234 668.516 736.984C669.125 736.734 669.659 736.383 670.117 735.93C670.576 735.471 670.935 734.935 671.195 734.32C671.456 733.701 671.586 733.023 671.586 732.289C671.586 731.591 671.461 730.938 671.211 730.328C670.966 729.719 670.62 729.18 670.172 728.711C669.724 728.242 669.193 727.878 668.578 727.617C667.969 727.352 667.299 727.219 666.57 727.219C665.841 727.219 665.169 727.344 664.555 727.594C663.945 727.844 663.414 728.198 662.961 728.656C662.513 729.109 662.164 729.646 661.914 730.266C661.669 730.88 661.547 731.555 661.547 732.289C661.547 732.987 661.669 733.643 661.914 734.258C662.159 734.867 662.505 735.406 662.953 735.875C663.406 736.339 663.938 736.703 664.547 736.969C665.161 737.229 665.836 737.359 666.57 737.359ZM685.391 734.961C685.391 735.638 685.221 736.216 684.883 736.695C684.549 737.169 684.081 737.531 683.477 737.781C682.872 738.031 682.161 738.156 681.344 738.156C680.911 738.156 680.503 738.135 680.117 738.094C679.732 738.052 679.378 737.992 679.055 737.914C678.732 737.836 678.448 737.74 678.203 737.625V736.352C678.594 736.513 679.07 736.664 679.633 736.805C680.195 736.94 680.784 737.008 681.398 737.008C681.971 737.008 682.456 736.932 682.852 736.781C683.247 736.625 683.547 736.404 683.75 736.117C683.958 735.826 684.062 735.477 684.062 735.07C684.062 734.68 683.977 734.354 683.805 734.094C683.633 733.828 683.346 733.589 682.945 733.375C682.549 733.156 682.008 732.924 681.32 732.68C680.836 732.508 680.409 732.32 680.039 732.117C679.669 731.909 679.359 731.674 679.109 731.414C678.859 731.154 678.669 730.852 678.539 730.508C678.414 730.164 678.352 729.771 678.352 729.328C678.352 728.719 678.505 728.198 678.812 727.766C679.125 727.328 679.555 726.995 680.102 726.766C680.654 726.531 681.286 726.414 682 726.414C682.609 726.414 683.172 726.471 683.688 726.586C684.208 726.701 684.685 726.854 685.117 727.047L684.703 728.188C684.292 728.016 683.854 727.872 683.391 727.758C682.932 727.643 682.458 727.586 681.969 727.586C681.479 727.586 681.065 727.659 680.727 727.805C680.393 727.945 680.138 728.146 679.961 728.406C679.784 728.667 679.695 728.977 679.695 729.336C679.695 729.737 679.779 730.07 679.945 730.336C680.117 730.602 680.388 730.839 680.758 731.047C681.133 731.25 681.628 731.464 682.242 731.688C682.914 731.932 683.484 732.193 683.953 732.469C684.422 732.74 684.779 733.073 685.023 733.469C685.268 733.859 685.391 734.357 685.391 734.961ZM688.82 725.844V732.156C688.82 732.365 688.812 732.62 688.797 732.922C688.781 733.219 688.768 733.482 688.758 733.711H688.812C688.922 733.576 689.081 733.375 689.289 733.109C689.503 732.844 689.682 732.63 689.828 732.469L692.672 729.438H694.195L690.75 733.094L694.445 738H692.883L689.859 733.945L688.82 734.898V738H687.531V725.844H688.82ZM694.586 729.438H695.977L697.867 734.406C697.977 734.698 698.078 734.979 698.172 735.25C698.266 735.516 698.349 735.771 698.422 736.016C698.495 736.26 698.552 736.497 698.594 736.727H698.648C698.721 736.466 698.826 736.125 698.961 735.703C699.096 735.276 699.242 734.841 699.398 734.398L701.188 729.438H702.586L698.859 739.258C698.661 739.784 698.43 740.242 698.164 740.633C697.904 741.023 697.586 741.323 697.211 741.531C696.836 741.745 696.383 741.852 695.852 741.852C695.607 741.852 695.391 741.836 695.203 741.805C695.016 741.779 694.854 741.747 694.719 741.711V740.672C694.833 740.698 694.971 740.721 695.133 740.742C695.299 740.763 695.471 740.773 695.648 740.773C695.971 740.773 696.25 740.711 696.484 740.586C696.724 740.466 696.93 740.289 697.102 740.055C697.273 739.82 697.422 739.542 697.547 739.219L698.016 738.016L694.586 729.438ZM710.922 737.984L709.398 733C709.331 732.786 709.266 732.578 709.203 732.375C709.146 732.167 709.091 731.969 709.039 731.781C708.992 731.589 708.948 731.411 708.906 731.25C708.87 731.083 708.839 730.94 708.812 730.82H708.758C708.737 730.94 708.708 731.083 708.672 731.25C708.635 731.411 708.591 731.589 708.539 731.781C708.492 731.974 708.44 732.177 708.383 732.391C708.326 732.599 708.26 732.81 708.188 733.023L706.594 737.984H705.133L702.773 729.422H704.117L705.352 734.148C705.435 734.461 705.513 734.771 705.586 735.078C705.664 735.38 705.729 735.667 705.781 735.938C705.839 736.203 705.88 736.435 705.906 736.633H705.969C706 736.503 706.034 736.346 706.07 736.164C706.112 735.982 706.156 735.789 706.203 735.586C706.255 735.378 706.31 735.172 706.367 734.969C706.424 734.76 706.482 734.565 706.539 734.383L708.117 729.422H709.516L711.039 734.375C711.117 734.625 711.193 734.885 711.266 735.156C711.344 735.427 711.414 735.69 711.477 735.945C711.539 736.195 711.583 736.419 711.609 736.617H711.672C711.693 736.44 711.732 736.221 711.789 735.961C711.846 735.701 711.911 735.414 711.984 735.102C712.062 734.789 712.143 734.471 712.227 734.148L713.477 729.422H714.797L712.43 737.984H710.922ZM719.656 729.281C720.385 729.281 721.01 729.443 721.531 729.766C722.052 730.089 722.451 730.542 722.727 731.125C723.003 731.703 723.141 732.38 723.141 733.156V733.961H717.227C717.242 734.966 717.492 735.732 717.977 736.258C718.461 736.784 719.143 737.047 720.023 737.047C720.565 737.047 721.044 736.997 721.461 736.898C721.878 736.799 722.31 736.654 722.758 736.461V737.602C722.326 737.794 721.896 737.935 721.469 738.023C721.047 738.112 720.547 738.156 719.969 738.156C719.146 738.156 718.427 737.99 717.812 737.656C717.203 737.318 716.729 736.823 716.391 736.172C716.052 735.521 715.883 734.724 715.883 733.781C715.883 732.859 716.036 732.062 716.344 731.391C716.656 730.714 717.094 730.193 717.656 729.828C718.224 729.464 718.891 729.281 719.656 729.281ZM719.641 730.344C718.948 730.344 718.396 730.57 717.984 731.023C717.573 731.477 717.328 732.109 717.25 732.922H721.781C721.776 732.411 721.695 731.964 721.539 731.578C721.388 731.188 721.156 730.885 720.844 730.672C720.531 730.453 720.13 730.344 719.641 730.344ZM726.641 725.844V728.883C726.641 729.232 726.63 729.57 726.609 729.898C726.594 730.227 726.581 730.482 726.57 730.664H726.641C726.875 730.279 727.214 729.953 727.656 729.688C728.099 729.422 728.664 729.289 729.352 729.289C730.424 729.289 731.279 729.661 731.914 730.406C732.555 731.146 732.875 732.247 732.875 733.711C732.875 734.674 732.729 735.487 732.438 736.148C732.146 736.81 731.734 737.31 731.203 737.648C730.672 737.987 730.044 738.156 729.32 738.156C728.643 738.156 728.086 738.031 727.648 737.781C727.216 737.526 726.883 737.216 726.648 736.852H726.547L726.281 738H725.344V725.844H726.641ZM729.141 730.375C728.521 730.375 728.029 730.497 727.664 730.742C727.299 730.982 727.036 731.346 726.875 731.836C726.719 732.32 726.641 732.935 726.641 733.68V733.75C726.641 734.828 726.82 735.654 727.18 736.227C727.539 736.794 728.193 737.078 729.141 737.078C729.938 737.078 730.534 736.786 730.93 736.203C731.331 735.62 731.531 734.786 731.531 733.703C731.531 732.599 731.333 731.768 730.938 731.211C730.547 730.654 729.948 730.375 729.141 730.375ZM744.375 727.586C743.745 727.586 743.177 727.695 742.672 727.914C742.172 728.128 741.745 728.44 741.391 728.852C741.042 729.258 740.773 729.75 740.586 730.328C740.398 730.906 740.305 731.557 740.305 732.281C740.305 733.24 740.453 734.073 740.75 734.781C741.052 735.484 741.5 736.029 742.094 736.414C742.693 736.799 743.44 736.992 744.336 736.992C744.846 736.992 745.326 736.951 745.773 736.867C746.227 736.779 746.667 736.669 747.094 736.539V737.695C746.677 737.852 746.24 737.966 745.781 738.039C745.323 738.117 744.779 738.156 744.148 738.156C742.987 738.156 742.016 737.917 741.234 737.438C740.458 736.953 739.875 736.271 739.484 735.391C739.099 734.51 738.906 733.471 738.906 732.273C738.906 731.409 739.026 730.62 739.266 729.906C739.51 729.188 739.865 728.568 740.328 728.047C740.797 727.526 741.37 727.125 742.047 726.844C742.729 726.557 743.51 726.414 744.391 726.414C744.969 726.414 745.526 726.471 746.062 726.586C746.599 726.701 747.083 726.865 747.516 727.078L746.984 728.203C746.62 728.036 746.219 727.893 745.781 727.773C745.349 727.648 744.88 727.586 744.375 727.586ZM756.758 733.703C756.758 734.406 756.667 735.034 756.484 735.586C756.302 736.138 756.039 736.604 755.695 736.984C755.352 737.365 754.935 737.656 754.445 737.859C753.961 738.057 753.411 738.156 752.797 738.156C752.224 738.156 751.698 738.057 751.219 737.859C750.745 737.656 750.333 737.365 749.984 736.984C749.641 736.604 749.372 736.138 749.18 735.586C748.992 735.034 748.898 734.406 748.898 733.703C748.898 732.766 749.057 731.969 749.375 731.312C749.693 730.651 750.146 730.148 750.734 729.805C751.328 729.456 752.034 729.281 752.852 729.281C753.633 729.281 754.315 729.456 754.898 729.805C755.487 730.154 755.943 730.659 756.266 731.32C756.594 731.977 756.758 732.771 756.758 733.703ZM750.242 733.703C750.242 734.391 750.333 734.987 750.516 735.492C750.698 735.997 750.979 736.388 751.359 736.664C751.74 736.94 752.229 737.078 752.828 737.078C753.422 737.078 753.909 736.94 754.289 736.664C754.674 736.388 754.958 735.997 755.141 735.492C755.323 734.987 755.414 734.391 755.414 733.703C755.414 733.021 755.323 732.432 755.141 731.938C754.958 731.438 754.677 731.052 754.297 730.781C753.917 730.51 753.424 730.375 752.82 730.375C751.93 730.375 751.276 730.669 750.859 731.258C750.448 731.846 750.242 732.661 750.242 733.703ZM758.805 737.188C758.805 736.823 758.893 736.565 759.07 736.414C759.247 736.258 759.464 736.18 759.719 736.18C759.984 736.18 760.208 736.258 760.391 736.414C760.573 736.565 760.664 736.823 760.664 737.188C760.664 737.547 760.573 737.81 760.391 737.977C760.208 738.138 759.984 738.219 759.719 738.219C759.464 738.219 759.247 738.138 759.07 737.977C758.893 737.81 758.805 737.547 758.805 737.188ZM767.555 726.578H770.789C772.216 726.578 773.289 726.792 774.008 727.219C774.727 727.646 775.086 728.372 775.086 729.398C775.086 729.841 775 730.24 774.828 730.594C774.661 730.943 774.417 731.232 774.094 731.461C773.771 731.69 773.372 731.849 772.898 731.938V732.016C773.398 732.094 773.841 732.237 774.227 732.445C774.612 732.654 774.914 732.945 775.133 733.32C775.352 733.695 775.461 734.172 775.461 734.75C775.461 735.453 775.297 736.047 774.969 736.531C774.646 737.016 774.188 737.383 773.594 737.633C773 737.878 772.297 738 771.484 738H767.555V726.578ZM768.883 731.477H771.07C772.065 731.477 772.753 731.312 773.133 730.984C773.518 730.656 773.711 730.177 773.711 729.547C773.711 728.896 773.482 728.427 773.023 728.141C772.57 727.854 771.846 727.711 770.852 727.711H768.883V731.477ZM768.883 732.594V736.867H771.258C772.273 736.867 772.992 736.669 773.414 736.273C773.836 735.872 774.047 735.333 774.047 734.656C774.047 734.224 773.951 733.854 773.758 733.547C773.57 733.24 773.263 733.005 772.836 732.844C772.414 732.677 771.849 732.594 771.141 732.594H768.883ZM781.133 738.156C780.362 738.156 779.682 737.997 779.094 737.68C778.505 737.362 778.047 736.878 777.719 736.227C777.391 735.576 777.227 734.755 777.227 733.766C777.227 732.729 777.398 731.883 777.742 731.227C778.091 730.565 778.57 730.076 779.18 729.758C779.789 729.44 780.482 729.281 781.258 729.281C781.685 729.281 782.096 729.326 782.492 729.414C782.893 729.497 783.221 729.604 783.477 729.734L783.086 730.82C782.826 730.716 782.523 730.622 782.18 730.539C781.841 730.456 781.523 730.414 781.227 730.414C780.633 730.414 780.138 730.542 779.742 730.797C779.352 731.052 779.057 731.427 778.859 731.922C778.667 732.417 778.57 733.026 778.57 733.75C778.57 734.443 778.664 735.034 778.852 735.523C779.044 736.013 779.328 736.388 779.703 736.648C780.083 736.904 780.557 737.031 781.125 737.031C781.578 737.031 781.987 736.984 782.352 736.891C782.716 736.792 783.047 736.677 783.344 736.547V737.703C783.057 737.849 782.737 737.961 782.383 738.039C782.034 738.117 781.617 738.156 781.133 738.156ZM788.672 729.281C789.401 729.281 790.026 729.443 790.547 729.766C791.068 730.089 791.466 730.542 791.742 731.125C792.018 731.703 792.156 732.38 792.156 733.156V733.961H786.242C786.258 734.966 786.508 735.732 786.992 736.258C787.477 736.784 788.159 737.047 789.039 737.047C789.581 737.047 790.06 736.997 790.477 736.898C790.893 736.799 791.326 736.654 791.773 736.461V737.602C791.341 737.794 790.911 737.935 790.484 738.023C790.062 738.112 789.562 738.156 788.984 738.156C788.161 738.156 787.443 737.99 786.828 737.656C786.219 737.318 785.745 736.823 785.406 736.172C785.068 735.521 784.898 734.724 784.898 733.781C784.898 732.859 785.052 732.062 785.359 731.391C785.672 730.714 786.109 730.193 786.672 729.828C787.24 729.464 787.906 729.281 788.672 729.281ZM788.656 730.344C787.964 730.344 787.411 730.57 787 731.023C786.589 731.477 786.344 732.109 786.266 732.922H790.797C790.792 732.411 790.711 731.964 790.555 731.578C790.404 731.188 790.172 730.885 789.859 730.672C789.547 730.453 789.146 730.344 788.656 730.344ZM805.688 729.438V738H804.383V730.555H799.82V738H798.516V729.438H805.688ZM812.461 729.281C813.529 729.281 814.38 729.648 815.016 730.383C815.651 731.117 815.969 732.221 815.969 733.695C815.969 734.669 815.823 735.487 815.531 736.148C815.24 736.81 814.828 737.31 814.297 737.648C813.771 737.987 813.148 738.156 812.43 738.156C811.977 738.156 811.578 738.096 811.234 737.977C810.891 737.857 810.596 737.695 810.352 737.492C810.107 737.289 809.904 737.068 809.742 736.828H809.648C809.664 737.031 809.682 737.276 809.703 737.562C809.729 737.849 809.742 738.099 809.742 738.312V741.828H808.438V729.438H809.508L809.68 730.703H809.742C809.909 730.443 810.112 730.206 810.352 729.992C810.591 729.773 810.883 729.602 811.227 729.477C811.576 729.346 811.987 729.281 812.461 729.281ZM812.234 730.375C811.641 730.375 811.161 730.49 810.797 730.719C810.438 730.948 810.174 731.292 810.008 731.75C809.841 732.203 809.753 732.773 809.742 733.461V733.711C809.742 734.435 809.82 735.047 809.977 735.547C810.138 736.047 810.401 736.427 810.766 736.688C811.135 736.948 811.63 737.078 812.25 737.078C812.781 737.078 813.224 736.935 813.578 736.648C813.932 736.362 814.195 735.964 814.367 735.453C814.544 734.938 814.633 734.346 814.633 733.68C814.633 732.669 814.435 731.867 814.039 731.273C813.648 730.674 813.047 730.375 812.234 730.375ZM821.438 729.297C822.458 729.297 823.216 729.526 823.711 729.984C824.206 730.443 824.453 731.174 824.453 732.18V738H823.508L823.258 736.734H823.195C822.956 737.047 822.706 737.31 822.445 737.523C822.185 737.732 821.883 737.891 821.539 738C821.201 738.104 820.784 738.156 820.289 738.156C819.768 738.156 819.305 738.065 818.898 737.883C818.497 737.701 818.18 737.424 817.945 737.055C817.716 736.685 817.602 736.216 817.602 735.648C817.602 734.794 817.94 734.138 818.617 733.68C819.294 733.221 820.326 732.971 821.711 732.93L823.188 732.867V732.344C823.188 731.604 823.029 731.086 822.711 730.789C822.393 730.492 821.945 730.344 821.367 730.344C820.919 730.344 820.492 730.409 820.086 730.539C819.68 730.669 819.294 730.823 818.93 731L818.531 730.016C818.917 729.818 819.359 729.648 819.859 729.508C820.359 729.367 820.885 729.297 821.438 729.297ZM823.172 733.781L821.867 733.836C820.799 733.878 820.047 734.052 819.609 734.359C819.172 734.667 818.953 735.102 818.953 735.664C818.953 736.154 819.102 736.516 819.398 736.75C819.695 736.984 820.089 737.102 820.578 737.102C821.339 737.102 821.961 736.891 822.445 736.469C822.93 736.047 823.172 735.414 823.172 734.57V733.781ZM833.93 731.586C833.93 732.122 833.773 732.542 833.461 732.844C833.148 733.141 832.745 733.341 832.25 733.445V733.508C832.786 733.581 833.247 733.773 833.633 734.086C834.023 734.393 834.219 734.865 834.219 735.5C834.219 735.99 834.102 736.422 833.867 736.797C833.633 737.172 833.266 737.466 832.766 737.68C832.266 737.893 831.615 738 830.812 738H827.125V729.438H830.781C831.396 729.438 831.938 729.508 832.406 729.648C832.88 729.784 833.253 730.008 833.523 730.32C833.794 730.633 833.93 731.055 833.93 731.586ZM832.867 735.5C832.867 734.995 832.674 734.63 832.289 734.406C831.909 734.182 831.354 734.07 830.625 734.07H828.43V736.945H830.656C831.375 736.945 831.922 736.836 832.297 736.617C832.677 736.393 832.867 736.021 832.867 735.5ZM832.609 731.734C832.609 731.328 832.461 731.026 832.164 730.828C831.867 730.625 831.38 730.523 830.703 730.523H828.43V732.984H830.477C831.18 732.984 831.711 732.883 832.07 732.68C832.43 732.477 832.609 732.161 832.609 731.734ZM839.516 729.297C840.536 729.297 841.294 729.526 841.789 729.984C842.284 730.443 842.531 731.174 842.531 732.18V738H841.586L841.336 736.734H841.273C841.034 737.047 840.784 737.31 840.523 737.523C840.263 737.732 839.961 737.891 839.617 738C839.279 738.104 838.862 738.156 838.367 738.156C837.846 738.156 837.383 738.065 836.977 737.883C836.576 737.701 836.258 737.424 836.023 737.055C835.794 736.685 835.68 736.216 835.68 735.648C835.68 734.794 836.018 734.138 836.695 733.68C837.372 733.221 838.404 732.971 839.789 732.93L841.266 732.867V732.344C841.266 731.604 841.107 731.086 840.789 730.789C840.471 730.492 840.023 730.344 839.445 730.344C838.997 730.344 838.57 730.409 838.164 730.539C837.758 730.669 837.372 730.823 837.008 731L836.609 730.016C836.995 729.818 837.438 729.648 837.938 729.508C838.438 729.367 838.964 729.297 839.516 729.297ZM841.25 733.781L839.945 733.836C838.878 733.878 838.125 734.052 837.688 734.359C837.25 734.667 837.031 735.102 837.031 735.664C837.031 736.154 837.18 736.516 837.477 736.75C837.773 736.984 838.167 737.102 838.656 737.102C839.417 737.102 840.039 736.891 840.523 736.469C841.008 736.047 841.25 735.414 841.25 734.57V733.781ZM851.562 729.281C852.203 729.281 852.758 729.37 853.227 729.547C853.695 729.719 854.057 729.971 854.312 730.305C854.568 730.638 854.695 731.044 854.695 731.523C854.695 732.039 854.555 732.451 854.273 732.758C853.992 733.065 853.604 733.286 853.109 733.422V733.484C853.458 733.578 853.773 733.714 854.055 733.891C854.341 734.062 854.568 734.292 854.734 734.578C854.906 734.859 854.992 735.211 854.992 735.633C854.992 736.112 854.862 736.544 854.602 736.93C854.341 737.31 853.945 737.609 853.414 737.828C852.883 738.047 852.211 738.156 851.398 738.156C850.997 738.156 850.617 738.133 850.258 738.086C849.898 738.044 849.573 737.982 849.281 737.898C848.99 737.815 848.734 737.716 848.516 737.602V736.422C848.88 736.599 849.307 736.755 849.797 736.891C850.286 737.026 850.815 737.094 851.383 737.094C851.82 737.094 852.214 737.044 852.562 736.945C852.911 736.841 853.188 736.677 853.391 736.453C853.599 736.224 853.703 735.924 853.703 735.555C853.703 735.216 853.612 734.938 853.43 734.719C853.247 734.495 852.974 734.331 852.609 734.227C852.25 734.117 851.794 734.062 851.242 734.062H850.094V733H851.039C851.773 733 852.359 732.896 852.797 732.688C853.234 732.479 853.453 732.128 853.453 731.633C853.453 731.206 853.284 730.888 852.945 730.68C852.607 730.466 852.122 730.359 851.492 730.359C851.023 730.359 850.609 730.409 850.25 730.508C849.891 730.602 849.503 730.737 849.086 730.914L848.625 729.875C849.073 729.677 849.542 729.529 850.031 729.43C850.521 729.331 851.031 729.281 851.562 729.281ZM860.297 729.297C861.318 729.297 862.076 729.526 862.57 729.984C863.065 730.443 863.312 731.174 863.312 732.18V738H862.367L862.117 736.734H862.055C861.815 737.047 861.565 737.31 861.305 737.523C861.044 737.732 860.742 737.891 860.398 738C860.06 738.104 859.643 738.156 859.148 738.156C858.628 738.156 858.164 738.065 857.758 737.883C857.357 737.701 857.039 737.424 856.805 737.055C856.576 736.685 856.461 736.216 856.461 735.648C856.461 734.794 856.799 734.138 857.477 733.68C858.154 733.221 859.185 732.971 860.57 732.93L862.047 732.867V732.344C862.047 731.604 861.888 731.086 861.57 730.789C861.253 730.492 860.805 730.344 860.227 730.344C859.779 730.344 859.352 730.409 858.945 730.539C858.539 730.669 858.154 730.823 857.789 731L857.391 730.016C857.776 729.818 858.219 729.648 858.719 729.508C859.219 729.367 859.745 729.297 860.297 729.297ZM862.031 733.781L860.727 733.836C859.659 733.878 858.906 734.052 858.469 734.359C858.031 734.667 857.812 735.102 857.812 735.664C857.812 736.154 857.961 736.516 858.258 736.75C858.555 736.984 858.948 737.102 859.438 737.102C860.198 737.102 860.82 736.891 861.305 736.469C861.789 736.047 862.031 735.414 862.031 734.57V733.781ZM877.461 729.438V736.914H878.688V740.945H877.383V738H865.984V729.438H867.281V736.898H871.07V729.438H872.375V736.898H876.172V729.438H877.461ZM881.578 729.438V734.82C881.578 734.924 881.576 735.06 881.57 735.227C881.565 735.388 881.557 735.562 881.547 735.75C881.536 735.932 881.526 736.109 881.516 736.281C881.51 736.448 881.503 736.586 881.492 736.695L886.164 729.438H887.758V738H886.547V732.75C886.547 732.583 886.549 732.37 886.555 732.109C886.56 731.849 886.568 731.594 886.578 731.344C886.589 731.089 886.596 730.891 886.602 730.75L881.945 738H880.344V729.438H881.578ZM901.992 729.438V736.914H903.219V740.945H901.914V738H890.516V729.438H891.812V736.898H895.602V729.438H896.906V736.898H900.703V729.438H901.992ZM908.172 729.281C908.901 729.281 909.526 729.443 910.047 729.766C910.568 730.089 910.966 730.542 911.242 731.125C911.518 731.703 911.656 732.38 911.656 733.156V733.961H905.742C905.758 734.966 906.008 735.732 906.492 736.258C906.977 736.784 907.659 737.047 908.539 737.047C909.081 737.047 909.56 736.997 909.977 736.898C910.393 736.799 910.826 736.654 911.273 736.461V737.602C910.841 737.794 910.411 737.935 909.984 738.023C909.562 738.112 909.062 738.156 908.484 738.156C907.661 738.156 906.943 737.99 906.328 737.656C905.719 737.318 905.245 736.823 904.906 736.172C904.568 735.521 904.398 734.724 904.398 733.781C904.398 732.859 904.552 732.062 904.859 731.391C905.172 730.714 905.609 730.193 906.172 729.828C906.74 729.464 907.406 729.281 908.172 729.281ZM908.156 730.344C907.464 730.344 906.911 730.57 906.5 731.023C906.089 731.477 905.844 732.109 905.766 732.922H910.297C910.292 732.411 910.211 731.964 910.055 731.578C909.904 731.188 909.672 730.885 909.359 730.672C909.047 730.453 908.646 730.344 908.156 730.344ZM915.164 729.438V733.031H919.938V729.438H921.234V738H919.938V734.133H915.164V738H913.859V729.438H915.164ZM923.984 738V729.438H925.289V732.969H927.633C928.362 732.969 928.961 733.06 929.43 733.242C929.904 733.424 930.255 733.695 930.484 734.055C930.714 734.414 930.828 734.859 930.828 735.391C930.828 735.922 930.714 736.383 930.484 736.773C930.26 737.164 929.906 737.466 929.422 737.68C928.943 737.893 928.318 738 927.547 738H923.984ZM925.289 736.945H927.422C928.068 736.945 928.583 736.831 928.969 736.602C929.354 736.372 929.547 735.99 929.547 735.453C929.547 734.927 929.367 734.562 929.008 734.359C928.648 734.151 928.133 734.047 927.461 734.047H925.289V736.945ZM932.242 738V729.438H933.539V738H932.242ZM936.086 737.188C936.086 736.823 936.174 736.565 936.352 736.414C936.529 736.258 936.745 736.18 937 736.18C937.266 736.18 937.49 736.258 937.672 736.414C937.854 736.565 937.945 736.823 937.945 737.188C937.945 737.547 937.854 737.81 937.672 737.977C937.49 738.138 937.266 738.219 937 738.219C936.745 738.219 936.529 738.138 936.352 737.977C936.174 737.81 936.086 737.547 936.086 737.188Z" fill="white"/>
<defs>
<linearGradient id="paint0_linear_112_1374" x1="37.9815" y1="317.743" x2="1440" y2="317.743" gradientUnits="userSpaceOnUse">
<stop stop-color="#390696"/>
<stop offset="1" stop-color="#8C129A"/>
</linearGradient>
<linearGradient id="paint1_linear_112_1374" x1="37.9815" y1="729.051" x2="1440" y2="729.051" gradientUnits="userSpaceOnUse">
<stop stop-color="#390696"/>
<stop offset="1" stop-color="#8C129A"/>
</linearGradient>
</defs>
</svg>
